warning: skipping specs/task-realtime-translation.spec.md: parse error at line 12: unknown top-level section header 'Context' - use only Intent/Constraints/Decisions/Boundaries/Acceptance Criteria/Out of Scope
warning: skipping specs/task-mention-list-scrolling.spec.md: parse error at line 12: unknown top-level section header 'Context' - use only Intent/Constraints/Decisions/Boundaries/Acceptance Criteria/Out of Scope
<?xml version="1.0" encoding="UTF-8" standalone="no"?>
<!DOCTYPE svg PUBLIC "-//W3C//DTD SVG 1.1//EN"
 "http://www.w3.org/Graphics/SVG/1.1/DTD/svg11.dtd">
<!-- Generated by graphviz version 13.1.1 (20250719.2154)
 -->
<!-- Title: spec_dependencies Pages: 1 -->
<svg width="3612pt" height="433pt"
 viewBox="0.00 0.00 3612.00 433.00" xmlns="http://www.w3.org/2000/svg" xmlns:xlink="http://www.w3.org/1999/xlink">
<g id="graph0" class="graph" transform="scale(1 1) rotate(0) translate(4 429)">
<title>spec_dependencies</title>
<polygon fill="white" stroke="none" points="-4,4 -4,-429 3607.75,-429 3607.75,4 -4,4"/>
<!-- task&#45;agent&#45;to&#45;app&#45;l1&#45;weather&#45;v2&#45;doc&#45;sync -->
<g id="node1" class="node">
<title>task&#45;agent&#45;to&#45;app&#45;l1&#45;weather&#45;v2&#45;doc&#45;sync</title>
<polygon fill="none" stroke="black" points="3603.75,-59 3290,-59 3290,-23 3603.75,-23 3603.75,-59"/>
<text xml:space="preserve" text-anchor="middle" x="3446.88" y="-42.55" font-family="Helvetica,sans-Serif" font-size="11.00">Agent&#45;to&#45;App L1 Weather — v2 Schema Documentation Sync</text>
<text xml:space="preserve" text-anchor="middle" x="3446.88" y="-30.55" font-family="Helvetica,sans-Serif" font-size="11.00">[0.5d]</text>
</g>
<!-- task&#45;tg&#45;bot&#45;menu&#45;button -->
<g id="node2" class="node">
<title>task&#45;tg&#45;bot&#45;menu&#45;button</title>
<polygon fill="none" stroke="black" points="2093.75,-186 1651,-186 1651,-150 2093.75,-150 2093.75,-186"/>
<text xml:space="preserve" text-anchor="middle" x="1872.38" y="-169.55" font-family="Helvetica,sans-Serif" font-size="11.00">Telegram Bot UI Alignment — Phase 4a: Menu Button &amp; Pure Command Send&#45;on&#45;Select</text>
<text xml:space="preserve" text-anchor="middle" x="1872.38" y="-157.55" font-family="Helvetica,sans-Serif" font-size="11.00">[1d]</text>
</g>
<!-- task&#45;tg&#45;bot&#45;command&#45;at&#45;addressing -->
<g id="node11" class="node">
<title>task&#45;tg&#45;bot&#45;command&#45;at&#45;addressing</title>
<polygon fill="none" stroke="black" points="2512.5,-186 2129.75,-186 2129.75,-150 2512.5,-150 2512.5,-186"/>
<text xml:space="preserve" text-anchor="middle" x="2321.12" y="-169.55" font-family="Helvetica,sans-Serif" font-size="11.00">Telegram Bot UI Alignment — Phase 4b: /command@bot Explicit Addressing</text>
<text xml:space="preserve" text-anchor="middle" x="2321.12" y="-157.55" font-family="Helvetica,sans-Serif" font-size="11.00">[1d]</text>
</g>
<!-- task&#45;tg&#45;bot&#45;menu&#45;button&#45;&gt;task&#45;tg&#45;bot&#45;command&#45;at&#45;addressing -->
<g id="edge13" class="edge">
<title>task&#45;tg&#45;bot&#45;menu&#45;button&#45;&gt;task&#45;tg&#45;bot&#45;command&#45;at&#45;addressing</title>
<path fill="none" stroke="black" d="M2094.13,-168C2102.22,-168 2110.31,-168 2118.36,-168"/>
<polygon fill="black" stroke="black" points="2128.1,-168 2118.1,-172.5 2124.31,-168 2118.1,-168 2118.1,-168 2118.1,-168 2124.31,-168 2118.1,-163.5 2128.1,-168"/>
</g>
<!-- task&#45;tg&#45;bot&#45;explicit&#45;room&#45;no&#45;fallback -->
<g id="node3" class="node">
<title>task&#45;tg&#45;bot&#45;explicit&#45;room&#45;no&#45;fallback</title>
<polygon fill="none" stroke="black" points="1230.75,-166 819.5,-166 819.5,-130 1230.75,-130 1230.75,-166"/>
<text xml:space="preserve" text-anchor="middle" x="1025.12" y="-149.55" font-family="Helvetica,sans-Serif" font-size="11.00">Telegram Bot UI Alignment — Phase 2b: ExplicitRoom Suppresses Room Fallback</text>
<text xml:space="preserve" text-anchor="middle" x="1025.12" y="-137.55" font-family="Helvetica,sans-Serif" font-size="11.00">[1d]</text>
</g>
<!-- task&#45;tg&#45;bot&#45;mention&#45;reply&#45;first -->
<g id="node4" class="node">
<title>task&#45;tg&#45;bot&#45;mention&#45;reply&#45;first</title>
<polygon fill="none" stroke="black" points="1615,-132 1266.75,-132 1266.75,-96 1615,-96 1615,-132"/>
<text xml:space="preserve" text-anchor="middle" x="1440.88" y="-115.55" font-family="Helvetica,sans-Serif" font-size="11.00">Telegram Bot UI Alignment — Phase 3: Mention/Reply&#45;First Targeting</text>
<text xml:space="preserve" text-anchor="middle" x="1440.88" y="-103.55" font-family="Helvetica,sans-Serif" font-size="11.00">[1d]</text>
</g>
<!-- task&#45;tg&#45;bot&#45;explicit&#45;room&#45;no&#45;fallback&#45;&gt;task&#45;tg&#45;bot&#45;mention&#45;reply&#45;first -->
<g id="edge6" class="edge">
<title>task&#45;tg&#45;bot&#45;explicit&#45;room&#45;no&#45;fallback&#45;&gt;task&#45;tg&#45;bot&#45;mention&#45;reply&#45;first</title>
<path fill="none" stroke="red" stroke-width="2" d="M1231.18,-131.15C1238.82,-130.52 1246.47,-129.89 1254.08,-129.27"/>
<polygon fill="red" stroke="red" stroke-width="2" points="1263.98,-128.45 1254.38,-133.76 1261.47,-129.16 1254.06,-129.77 1254.01,-129.27 1253.97,-128.77 1261.39,-128.17 1253.65,-124.79 1263.98,-128.45"/>
</g>
<!-- task&#45;tg&#45;bot&#45;mention&#45;reply&#45;first&#45;&gt;task&#45;tg&#45;bot&#45;menu&#45;button -->
<g id="edge3" class="edge">
<title>task&#45;tg&#45;bot&#45;mention&#45;reply&#45;first&#45;&gt;task&#45;tg&#45;bot&#45;menu&#45;button</title>
<path fill="none" stroke="black" d="M1584.16,-132.5C1606.53,-135.37 1629.39,-138.28 1651,-141 1669.55,-143.33 1688.98,-145.75 1708.29,-148.14"/>
<polygon fill="black" stroke="black" points="1718.11,-149.35 1707.63,-152.59 1714.36,-148.89 1708.19,-148.13 1708.19,-148.13 1708.19,-148.13 1714.36,-148.89 1708.74,-143.66 1718.11,-149.35"/>
</g>
<!-- task&#45;tg&#45;bot&#45;timeline&#45;cards -->
<g id="node8" class="node">
<title>task&#45;tg&#45;bot&#45;timeline&#45;cards</title>
<polygon fill="none" stroke="black" points="2022.12,-78 1722.62,-78 1722.62,-42 2022.12,-42 2022.12,-78"/>
<text xml:space="preserve" text-anchor="middle" x="1872.38" y="-61.55" font-family="Helvetica,sans-Serif" font-size="11.00">Telegram Bot UI Alignment — Phase 4: Bot Timeline Cards</text>
<text xml:space="preserve" text-anchor="middle" x="1872.38" y="-49.55" font-family="Helvetica,sans-Serif" font-size="11.00">[1d]</text>
</g>
<!-- task&#45;tg&#45;bot&#45;mention&#45;reply&#45;first&#45;&gt;task&#45;tg&#45;bot&#45;timeline&#45;cards -->
<g id="edge9" class="edge">
<title>task&#45;tg&#45;bot&#45;mention&#45;reply&#45;first&#45;&gt;task&#45;tg&#45;bot&#45;timeline&#45;cards</title>
<path fill="none" stroke="black" d="M1584.16,-95.5C1606.53,-92.63 1629.39,-89.72 1651,-87 1670.53,-84.54 1691.04,-81.99 1711.36,-79.48"/>
<polygon fill="black" stroke="black" points="1721.08,-78.28 1711.71,-83.97 1717.33,-78.74 1711.16,-79.51 1711.16,-79.51 1711.16,-79.51 1717.33,-78.74 1710.61,-75.04 1721.08,-78.28"/>
</g>
<!-- task&#45;tg&#45;bot&#45;action&#45;buttons -->
<g id="node9" class="node">
<title>task&#45;tg&#45;bot&#45;action&#45;buttons</title>
<polygon fill="none" stroke="black" points="2046.12,-132 1698.62,-132 1698.62,-96 2046.12,-96 2046.12,-132"/>
<text xml:space="preserve" text-anchor="middle" x="1872.38" y="-115.55" font-family="Helvetica,sans-Serif" font-size="11.00">Telegram Bot UI Alignment — Phase 4c: Bot Message Action Buttons</text>
<text xml:space="preserve" text-anchor="middle" x="1872.38" y="-103.55" font-family="Helvetica,sans-Serif" font-size="11.00">[2d]</text>
</g>
<!-- task&#45;tg&#45;bot&#45;mention&#45;reply&#45;first&#45;&gt;task&#45;tg&#45;bot&#45;action&#45;buttons -->
<g id="edge10" class="edge">
<title>task&#45;tg&#45;bot&#45;mention&#45;reply&#45;first&#45;&gt;task&#45;tg&#45;bot&#45;action&#45;buttons</title>
<path fill="none" stroke="red" stroke-width="2" d="M1615.33,-114C1638.63,-114 1662.6,-114 1686.09,-114"/>
<polygon fill="red" stroke="red" stroke-width="2" points="1695.88,-114 1685.88,-118.5 1693.32,-114.5 1685.88,-114.5 1685.88,-114 1685.88,-113.5 1693.32,-113.5 1685.88,-109.5 1695.88,-114"/>
</g>
<!-- task&#45;tg&#45;bot&#45;ui&#45;alignment -->
<g id="node5" class="node">
<title>task&#45;tg&#45;bot&#45;ui&#45;alignment</title>
<polygon fill="none" stroke="black" points="352.75,-101 0,-101 0,-65 352.75,-65 352.75,-101"/>
<text xml:space="preserve" text-anchor="middle" x="176.38" y="-84.55" font-family="Helvetica,sans-Serif" font-size="11.00">Telegram Bot UI Alignment — Phase 1: Bot Badge &amp; Message Identity</text>
<text xml:space="preserve" text-anchor="middle" x="176.38" y="-72.55" font-family="Helvetica,sans-Serif" font-size="11.00">[1d]</text>
</g>
<!-- task&#45;tg&#45;bot&#45;explicit&#45;targeting -->
<g id="node7" class="node">
<title>task&#45;tg&#45;bot&#45;explicit&#45;targeting</title>
<polygon fill="none" stroke="black" points="783.5,-124 388.75,-124 388.75,-88 783.5,-88 783.5,-124"/>
<text xml:space="preserve" text-anchor="middle" x="586.12" y="-107.55" font-family="Helvetica,sans-Serif" font-size="11.00">Telegram Bot UI Alignment — Phase 2: Explicit Target Model (SUPERSEDED)</text>
<text xml:space="preserve" text-anchor="middle" x="586.12" y="-95.55" font-family="Helvetica,sans-Serif" font-size="11.00">[3d]</text>
</g>
<!-- task&#45;tg&#45;bot&#45;ui&#45;alignment&#45;&gt;task&#45;tg&#45;bot&#45;explicit&#45;targeting -->
<g id="edge7" class="edge">
<title>task&#45;tg&#45;bot&#45;ui&#45;alignment&#45;&gt;task&#45;tg&#45;bot&#45;explicit&#45;targeting</title>
<path fill="none" stroke="red" stroke-width="2" d="M352.96,-92.9C360.67,-93.34 368.44,-93.78 376.22,-94.22"/>
<polygon fill="red" stroke="red" stroke-width="2" points="386.02,-94.77 375.78,-98.7 383.43,-95.12 376,-94.7 376.03,-94.21 376.06,-93.71 383.49,-94.13 376.29,-89.71 386.02,-94.77"/>
</g>
<!-- task&#45;tg&#45;bot&#45;ui&#45;alignment&#45;&gt;task&#45;tg&#45;bot&#45;timeline&#45;cards -->
<g id="edge8" class="edge">
<title>task&#45;tg&#45;bot&#45;ui&#45;alignment&#45;&gt;task&#45;tg&#45;bot&#45;timeline&#45;cards</title>
<path fill="none" stroke="black" d="M352.98,-79.59C365.09,-79.39 377.1,-79.18 388.75,-79 869.99,-71.36 1439.14,-64.75 1711.08,-61.73"/>
<polygon fill="black" stroke="black" points="1721,-61.62 1711.05,-66.23 1717.22,-61.67 1711,-61.73 1711,-61.73 1711,-61.73 1717.22,-61.67 1710.95,-57.23 1721,-61.62"/>
</g>
<!-- task&#45;sso&#45;reclick&#45;after&#45;cancel -->
<g id="node6" class="node">
<title>task&#45;sso&#45;reclick&#45;after&#45;cancel</title>
<polygon fill="none" stroke="black" points="280.75,-155 72,-155 72,-119 280.75,-119 280.75,-155"/>
<text xml:space="preserve" text-anchor="middle" x="176.38" y="-138.55" font-family="Helvetica,sans-Serif" font-size="11.00">SSO Option Is Re&#45;clickable After Cancel</text>
<text xml:space="preserve" text-anchor="middle" x="176.38" y="-126.55" font-family="Helvetica,sans-Serif" font-size="11.00">[1d]</text>
</g>
<!-- task&#45;tg&#45;bot&#45;explicit&#45;targeting&#45;&gt;task&#45;tg&#45;bot&#45;explicit&#45;room&#45;no&#45;fallback -->
<g id="edge4" class="edge">
<title>task&#45;tg&#45;bot&#45;explicit&#45;targeting&#45;&gt;task&#45;tg&#45;bot&#45;explicit&#45;room&#45;no&#45;fallback</title>
<path fill="none" stroke="red" stroke-width="2" d="M779.44,-124.48C792.76,-125.76 806.22,-127.06 819.6,-128.34"/>
<polygon fill="red" stroke="red" stroke-width="2" points="829.44,-129.29 819.06,-132.81 826.84,-129.54 819.44,-128.83 819.49,-128.33 819.54,-127.83 826.94,-128.55 819.92,-123.85 829.44,-129.29"/>
</g>
<!-- task&#45;tg&#45;bot&#45;explicit&#45;targeting&#45;&gt;task&#45;tg&#45;bot&#45;mention&#45;reply&#45;first -->
<g id="edge5" class="edge">
<title>task&#45;tg&#45;bot&#45;explicit&#45;targeting&#45;&gt;task&#45;tg&#45;bot&#45;mention&#45;reply&#45;first</title>
<path fill="none" stroke="black" d="M783.83,-107.85C925.83,-109.18 1116.26,-110.96 1255.37,-112.27"/>
<polygon fill="black" stroke="black" points="1265.34,-112.36 1255.29,-116.77 1261.55,-112.33 1255.34,-112.27 1255.34,-112.27 1255.34,-112.27 1261.55,-112.33 1255.38,-107.77 1265.34,-112.36"/>
</g>
<!-- task&#45;tg&#45;bot&#45;approval&#45;request -->
<g id="node16" class="node">
<title>task&#45;tg&#45;bot&#45;approval&#45;request</title>
<polygon fill="none" stroke="black" points="2489.62,-132 2152.62,-132 2152.62,-96 2489.62,-96 2489.62,-132"/>
<text xml:space="preserve" text-anchor="middle" x="2321.12" y="-115.55" font-family="Helvetica,sans-Serif" font-size="11.00">Telegram Bot UI Alignment — Approval Requests via Inline Buttons</text>
<text xml:space="preserve" text-anchor="middle" x="2321.12" y="-103.55" font-family="Helvetica,sans-Serif" font-size="11.00">[2d]</text>
</g>
<!-- task&#45;tg&#45;bot&#45;action&#45;buttons&#45;&gt;task&#45;tg&#45;bot&#45;approval&#45;request -->
<g id="edge14" class="edge">
<title>task&#45;tg&#45;bot&#45;action&#45;buttons&#45;&gt;task&#45;tg&#45;bot&#45;approval&#45;request</title>
<path fill="none" stroke="black" d="M2046.42,-114C2077.48,-114 2109.91,-114 2141.14,-114"/>
<polygon fill="black" stroke="black" points="2150.91,-114 2140.91,-118.5 2147.13,-114 2140.91,-114 2140.91,-114 2140.91,-114 2147.13,-114 2140.91,-109.5 2150.91,-114"/>
</g>
<!-- task&#45;agent&#45;to&#45;app&#45;system -->
<g id="node18" class="node">
<title>task&#45;agent&#45;to&#45;app&#45;system</title>
<polygon fill="none" stroke="black" points="2435.62,-78 2206.62,-78 2206.62,-42 2435.62,-42 2435.62,-78"/>
<text xml:space="preserve" text-anchor="middle" x="2321.12" y="-61.55" font-family="Helvetica,sans-Serif" font-size="11.00">Agent&#45;to&#45;App — Mini&#45;Apps System Contract</text>
<text xml:space="preserve" text-anchor="middle" x="2321.12" y="-49.55" font-family="Helvetica,sans-Serif" font-size="11.00">[5d]</text>
</g>
<!-- task&#45;tg&#45;bot&#45;action&#45;buttons&#45;&gt;task&#45;agent&#45;to&#45;app&#45;system -->
<g id="edge16" class="edge">
<title>task&#45;tg&#45;bot&#45;action&#45;buttons&#45;&gt;task&#45;agent&#45;to&#45;app&#45;system</title>
<path fill="none" stroke="red" stroke-width="2" d="M2026.18,-95.53C2080.92,-88.91 2141.96,-81.54 2194.17,-75.22"/>
<polygon fill="red" stroke="red" stroke-width="2" points="2203.78,-74.06 2194.39,-79.73 2201.3,-74.87 2193.91,-75.76 2193.85,-75.26 2193.79,-74.77 2201.18,-73.87 2193.31,-70.8 2203.78,-74.06"/>
</g>
<!-- task&#45;agent&#45;to&#45;app&#45;producer&#45;routing -->
<g id="node10" class="node">
<title>task&#45;agent&#45;to&#45;app&#45;producer&#45;routing</title>
<polygon fill="none" stroke="black" points="3254,-82 2875,-82 2875,-46 3254,-46 3254,-82"/>
<text xml:space="preserve" text-anchor="middle" x="3064.5" y="-65.55" font-family="Helvetica,sans-Serif" font-size="11.00">Agent&#45;to&#45;App Producer Routing — OctOS&#45;side Intent&#45;to&#45;Capability Contract</text>
<text xml:space="preserve" text-anchor="middle" x="3064.5" y="-53.55" font-family="Helvetica,sans-Serif" font-size="11.00">[3d]</text>
</g>
<!-- task&#45;agent&#45;to&#45;app&#45;producer&#45;routing&#45;&gt;task&#45;agent&#45;to&#45;app&#45;l1&#45;weather&#45;v2&#45;doc&#45;sync -->
<g id="edge2" class="edge">
<title>task&#45;agent&#45;to&#45;app&#45;producer&#45;routing&#45;&gt;task&#45;agent&#45;to&#45;app&#45;l1&#45;weather&#45;v2&#45;doc&#45;sync</title>
<path fill="none" stroke="red" stroke-width="2" d="M3254.29,-52.58C3261.98,-52.12 3269.67,-51.65 3277.31,-51.19"/>
<polygon fill="red" stroke="red" stroke-width="2" points="3287.25,-50.59 3277.54,-55.69 3284.72,-51.25 3277.3,-51.69 3277.27,-51.19 3277.24,-50.7 3284.66,-50.25 3277,-46.7 3287.25,-50.59"/>
</g>
<!-- task&#45;app&#45;service&#45;octos&#45;health -->
<g id="node12" class="node">
<title>task&#45;app&#45;service&#45;octos&#45;health</title>
<polygon fill="none" stroke="black" points="310.75,-209 42,-209 42,-173 310.75,-173 310.75,-209"/>
<text xml:space="preserve" text-anchor="middle" x="176.38" y="-192.55" font-family="Helvetica,sans-Serif" font-size="11.00">App Service Settings — Octos Service Health Status</text>
<text xml:space="preserve" text-anchor="middle" x="176.38" y="-180.55" font-family="Helvetica,sans-Serif" font-size="11.00">[0.5d]</text>
</g>
<!-- task&#45;mention&#45;user -->
<g id="node13" class="node">
<title>task&#45;mention&#45;user</title>
<polygon fill="none" stroke="black" points="256.38,-263 96.38,-263 96.38,-227 256.38,-227 256.38,-263"/>
<text xml:space="preserve" text-anchor="middle" x="176.38" y="-246.55" font-family="Helvetica,sans-Serif" font-size="11.00">@mention User Autocomplete</text>
<text xml:space="preserve" text-anchor="middle" x="176.38" y="-234.55" font-family="Helvetica,sans-Serif" font-size="11.00">[3d]</text>
</g>
<!-- project -->
<g id="node14" class="node">
<title>project</title>
<polygon fill="none" stroke="black" points="295,-317 57.75,-317 57.75,-281 295,-281 295,-317"/>
<text xml:space="preserve" text-anchor="middle" x="176.38" y="-294.55" font-family="Helvetica,sans-Serif" font-size="11.00">Robrix2 — Matrix Chat Client on Makepad 2.0</text>
</g>
<!-- task&#45;mention&#45;visible&#45;display&#45;text -->
<g id="node15" class="node">
<title>task&#45;mention&#45;visible&#45;display&#45;text</title>
<polygon fill="none" stroke="black" points="289,-371 63.75,-371 63.75,-335 289,-335 289,-371"/>
<text xml:space="preserve" text-anchor="middle" x="176.38" y="-348.55" font-family="Helvetica,sans-Serif" font-size="11.00">Visible @mention Display Text in Composer</text>
</g>
<!-- task&#45;octos&#45;approval&#45;policy&#45;config -->
<g id="node20" class="node">
<title>task&#45;octos&#45;approval&#45;policy&#45;config</title>
<polygon fill="none" stroke="black" points="2804.5,-132 2583,-132 2583,-96 2804.5,-96 2804.5,-132"/>
<text xml:space="preserve" text-anchor="middle" x="2693.75" y="-115.55" font-family="Helvetica,sans-Serif" font-size="11.00">Octos Native Approval Policy Configuration</text>
<text xml:space="preserve" text-anchor="middle" x="2693.75" y="-103.55" font-family="Helvetica,sans-Serif" font-size="11.00">[1.5d]</text>
</g>
<!-- task&#45;tg&#45;bot&#45;approval&#45;request&#45;&gt;task&#45;octos&#45;approval&#45;policy&#45;config -->
<g id="edge17" class="edge">
<title>task&#45;tg&#45;bot&#45;approval&#45;request&#45;&gt;task&#45;octos&#45;approval&#45;policy&#45;config</title>
<path fill="none" stroke="black" d="M2490.09,-114C2517.57,-114 2545.57,-114 2571.63,-114"/>
<polygon fill="black" stroke="black" points="2581.46,-114 2571.46,-118.5 2577.68,-114 2571.46,-114 2571.46,-114 2571.46,-114 2577.68,-114 2571.46,-109.5 2581.46,-114"/>
</g>
<!-- task&#45;agent&#45;to&#45;app&#45;l1&#45;weather&#45;card -->
<g id="node17" class="node">
<title>task&#45;agent&#45;to&#45;app&#45;l1&#45;weather&#45;card</title>
<polygon fill="none" stroke="black" points="2839,-36 2548.5,-36 2548.5,0 2839,0 2839,-36"/>
<text xml:space="preserve" text-anchor="middle" x="2693.75" y="-19.55" font-family="Helvetica,sans-Serif" font-size="11.00">Agent&#45;to&#45;App L1: Weather Card (first reference mini&#45;app)</text>
<text xml:space="preserve" text-anchor="middle" x="2693.75" y="-7.55" font-family="Helvetica,sans-Serif" font-size="11.00">[2d]</text>
</g>
<!-- task&#45;agent&#45;to&#45;app&#45;l1&#45;weather&#45;card&#45;&gt;task&#45;agent&#45;to&#45;app&#45;l1&#45;weather&#45;v2&#45;doc&#45;sync -->
<g id="edge1" class="edge">
<title>task&#45;agent&#45;to&#45;app&#45;l1&#45;weather&#45;card&#45;&gt;task&#45;agent&#45;to&#45;app&#45;l1&#45;weather&#45;v2&#45;doc&#45;sync</title>
<path fill="none" stroke="black" d="M2839.13,-22.42C2964.72,-26.27 3146.76,-31.84 3278.65,-35.88"/>
<polygon fill="black" stroke="black" points="3288.44,-36.18 3278.31,-40.37 3284.66,-36.06 3278.44,-35.87 3278.44,-35.87 3278.44,-35.87 3284.66,-36.06 3278.58,-31.38 3288.44,-36.18"/>
</g>
<!-- task&#45;agent&#45;to&#45;app&#45;l1&#45;weather&#45;card&#45;&gt;task&#45;agent&#45;to&#45;app&#45;producer&#45;routing -->
<g id="edge12" class="edge">
<title>task&#45;agent&#45;to&#45;app&#45;l1&#45;weather&#45;card&#45;&gt;task&#45;agent&#45;to&#45;app&#45;producer&#45;routing</title>
<path fill="none" stroke="red" stroke-width="2" d="M2839.43,-36.05C2860.36,-38.66 2882,-41.36 2903.22,-44.01"/>
<polygon fill="red" stroke="red" stroke-width="2" points="2912.88,-45.21 2902.4,-48.44 2910.27,-45.39 2902.89,-44.47 2902.95,-43.97 2903.02,-43.48 2910.4,-44.4 2903.51,-39.51 2912.88,-45.21"/>
</g>
<!-- task&#45;agent&#45;to&#45;app&#45;system&#45;&gt;task&#45;agent&#45;to&#45;app&#45;producer&#45;routing -->
<g id="edge11" class="edge">
<title>task&#45;agent&#45;to&#45;app&#45;system&#45;&gt;task&#45;agent&#45;to&#45;app&#45;producer&#45;routing</title>
<path fill="none" stroke="black" d="M2435.94,-60.61C2549.56,-61.23 2726.52,-62.18 2863.6,-62.92"/>
<polygon fill="black" stroke="black" points="2873.43,-62.97 2863.41,-67.42 2869.65,-62.95 2863.43,-62.92 2863.43,-62.92 2863.43,-62.92 2869.65,-62.95 2863.46,-58.42 2873.43,-62.97"/>
</g>
<!-- task&#45;agent&#45;to&#45;app&#45;system&#45;&gt;task&#45;agent&#45;to&#45;app&#45;l1&#45;weather&#45;card -->
<g id="edge15" class="edge">
<title>task&#45;agent&#45;to&#45;app&#45;system&#45;&gt;task&#45;agent&#45;to&#45;app&#45;l1&#45;weather&#45;card</title>
<path fill="none" stroke="red" stroke-width="2" d="M2436.1,-47.08C2467.64,-43.51 2502.45,-39.57 2535.97,-35.77"/>
<polygon fill="red" stroke="red" stroke-width="2" points="2545.84,-34.65 2536.41,-40.25 2543.34,-35.43 2535.96,-36.27 2535.9,-35.77 2535.84,-35.28 2543.23,-34.44 2535.39,-31.3 2545.84,-34.65"/>
</g>
<!-- task&#45;room&#45;info&#45;modal&#45;cancel&#45;flow -->
<g id="node19" class="node">
<title>task&#45;room&#45;info&#45;modal&#45;cancel&#45;flow</title>
<polygon fill="none" stroke="black" points="287.88,-425 64.88,-425 64.88,-389 287.88,-389 287.88,-425"/>
<text xml:space="preserve" text-anchor="middle" x="176.38" y="-408.55" font-family="Helvetica,sans-Serif" font-size="11.00">Room Info Modal Cancel Flow Consistency</text>
<text xml:space="preserve" text-anchor="middle" x="176.38" y="-396.55" font-family="Helvetica,sans-Serif" font-size="11.00">[1d]</text>
</g>
</g>
</svg>
